<svg width="200" height="200" viewBox="0 0 200 200" fill="none" xmlns="http://www.w3.org/2000/svg">
<rect width="200" height="200" rx="23" fill="white"/>
<path d="M36.9619 33.7656C36.9619 33.4668 36.915 33.2031 36.8213 32.9746C36.7334 32.7402 36.5752 32.5293 36.3467 32.3418C36.124 32.1543 35.8135 31.9756 35.415 31.8057C35.0225 31.6357 34.5244 31.4629 33.9209 31.2871C33.2881 31.0996 32.7168 30.8916 32.207 30.6631C31.6973 30.4287 31.2607 30.1621 30.8975 29.8633C30.5342 29.5645 30.2559 29.2217 30.0625 28.835C29.8691 28.4482 29.7725 28.0059 29.7725 27.5078C29.7725 27.0098 29.875 26.5498 30.0801 26.1279C30.2852 25.7061 30.5781 25.3398 30.959 25.0293C31.3457 24.7129 31.8057 24.4668 32.3389 24.291C32.8721 24.1152 33.4668 24.0273 34.123 24.0273C35.084 24.0273 35.8984 24.2119 36.5664 24.5811C37.2402 24.9443 37.7529 25.4219 38.1045 26.0137C38.4561 26.5996 38.6318 27.2266 38.6318 27.8945H36.9443C36.9443 27.4141 36.8418 26.9893 36.6367 26.6201C36.4316 26.2451 36.1211 25.9521 35.7051 25.7412C35.2891 25.5244 34.7617 25.416 34.123 25.416C33.5195 25.416 33.0215 25.5068 32.6289 25.6885C32.2363 25.8701 31.9434 26.1162 31.75 26.4268C31.5625 26.7373 31.4688 27.0918 31.4688 27.4902C31.4688 27.7598 31.5244 28.0059 31.6357 28.2285C31.7529 28.4453 31.9316 28.6475 32.1719 28.835C32.418 29.0225 32.7285 29.1953 33.1035 29.3535C33.4844 29.5117 33.9385 29.6641 34.4658 29.8105C35.1924 30.0156 35.8193 30.2441 36.3467 30.4961C36.874 30.748 37.3076 31.0322 37.6475 31.3486C37.9932 31.6592 38.248 32.0137 38.4121 32.4121C38.582 32.8047 38.667 33.25 38.667 33.748C38.667 34.2695 38.5615 34.7412 38.3506 35.1631C38.1396 35.585 37.8379 35.9453 37.4453 36.2441C37.0527 36.543 36.5811 36.7744 36.0303 36.9385C35.4854 37.0967 34.876 37.1758 34.2021 37.1758C33.6104 37.1758 33.0273 37.0938 32.4531 36.9297C31.8848 36.7656 31.3662 36.5195 30.8975 36.1914C30.4346 35.8633 30.0625 35.459 29.7812 34.9785C29.5059 34.4922 29.3682 33.9297 29.3682 33.291H31.0557C31.0557 33.7305 31.1406 34.1084 31.3105 34.4248C31.4805 34.7354 31.7119 34.9932 32.0049 35.1982C32.3037 35.4033 32.6406 35.5557 33.0156 35.6553C33.3965 35.749 33.792 35.7959 34.2021 35.7959C34.7939 35.7959 35.2949 35.7139 35.7051 35.5498C36.1152 35.3857 36.4258 35.1514 36.6367 34.8467C36.8535 34.542 36.9619 34.1816 36.9619 33.7656Z" fill="#747474"/>
<path d="M67.8438 24.2031V37H66.1738V24.2031H67.8438ZM71.957 24.2031V25.5918H62.0693V24.2031H71.957Z" fill="#747474"/>
<path d="M101.854 35.5322L105.106 38.1074L103.964 39.1621L100.765 36.6221L101.854 35.5322ZM105.062 30.1973V31.0059C105.062 31.9668 104.942 32.8281 104.702 33.5898C104.462 34.3516 104.116 34.999 103.665 35.5322C103.214 36.0654 102.672 36.4727 102.039 36.7539C101.412 37.0352 100.709 37.1758 99.9297 37.1758C99.1738 37.1758 98.4795 37.0352 97.8467 36.7539C97.2197 36.4727 96.6748 36.0654 96.2119 35.5322C95.7549 34.999 95.4004 34.3516 95.1484 33.5898C94.8965 32.8281 94.7705 31.9668 94.7705 31.0059V30.1973C94.7705 29.2363 94.8936 28.3779 95.1396 27.6221C95.3916 26.8604 95.7461 26.2129 96.2031 25.6797C96.6602 25.1406 97.2021 24.7305 97.8291 24.4492C98.4619 24.168 99.1562 24.0273 99.9121 24.0273C100.691 24.0273 101.397 24.168 102.03 24.4492C102.663 24.7305 103.205 25.1406 103.656 25.6797C104.107 26.2129 104.453 26.8604 104.693 27.6221C104.939 28.3779 105.062 29.2363 105.062 30.1973ZM103.384 31.0059V30.1797C103.384 29.418 103.305 28.7441 103.146 28.1582C102.994 27.5723 102.769 27.0801 102.47 26.6816C102.171 26.2832 101.808 25.9814 101.38 25.7764C100.952 25.5713 100.463 25.4688 99.9121 25.4688C99.3906 25.4688 98.916 25.5713 98.4883 25.7764C98.0664 25.9814 97.7031 26.2832 97.3984 26.6816C97.0938 27.0801 96.8594 27.5723 96.6953 28.1582C96.5312 28.7441 96.4492 29.418 96.4492 30.1797V31.0059C96.4492 31.7734 96.5312 32.4531 96.6953 33.0449C96.8594 33.6309 97.0938 34.126 97.3984 34.5303C97.709 34.9287 98.0781 35.2305 98.5059 35.4355C98.9336 35.6406 99.4082 35.7432 99.9297 35.7432C100.48 35.7432 100.97 35.6406 101.397 35.4355C101.825 35.2305 102.186 34.9287 102.479 34.5303C102.777 34.126 103.003 33.6309 103.155 33.0449C103.308 32.4531 103.384 31.7734 103.384 31.0059Z" fill="#747474"/>
<path d="M134.854 35.5322L138.106 38.1074L136.964 39.1621L133.765 36.6221L134.854 35.5322ZM138.062 30.1973V31.0059C138.062 31.9668 137.942 32.8281 137.702 33.5898C137.462 34.3516 137.116 34.999 136.665 35.5322C136.214 36.0654 135.672 36.4727 135.039 36.7539C134.412 37.0352 133.709 37.1758 132.93 37.1758C132.174 37.1758 131.479 37.0352 130.847 36.7539C130.22 36.4727 129.675 36.0654 129.212 35.5322C128.755 34.999 128.4 34.3516 128.148 33.5898C127.896 32.8281 127.771 31.9668 127.771 31.0059V30.1973C127.771 29.2363 127.894 28.3779 128.14 27.6221C128.392 26.8604 128.746 26.2129 129.203 25.6797C129.66 25.1406 130.202 24.7305 130.829 24.4492C131.462 24.168 132.156 24.0273 132.912 24.0273C133.691 24.0273 134.397 24.168 135.03 24.4492C135.663 24.7305 136.205 25.1406 136.656 25.6797C137.107 26.2129 137.453 26.8604 137.693 27.6221C137.939 28.3779 138.062 29.2363 138.062 30.1973ZM136.384 31.0059V30.1797C136.384 29.418 136.305 28.7441 136.146 28.1582C135.994 27.5723 135.769 27.0801 135.47 26.6816C135.171 26.2832 134.808 25.9814 134.38 25.7764C133.952 25.5713 133.463 25.4688 132.912 25.4688C132.391 25.4688 131.916 25.5713 131.488 25.7764C131.066 25.9814 130.703 26.2832 130.398 26.6816C130.094 27.0801 129.859 27.5723 129.695 28.1582C129.531 28.7441 129.449 29.418 129.449 30.1797V31.0059C129.449 31.7734 129.531 32.4531 129.695 33.0449C129.859 33.6309 130.094 34.126 130.398 34.5303C130.709 34.9287 131.078 35.2305 131.506 35.4355C131.934 35.6406 132.408 35.7432 132.93 35.7432C133.48 35.7432 133.97 35.6406 134.397 35.4355C134.825 35.2305 135.186 34.9287 135.479 34.5303C135.777 34.126 136.003 33.6309 136.155 33.0449C136.308 32.4531 136.384 31.7734 136.384 31.0059Z" fill="#747474"/>
<path d="M168.962 33.7656C168.962 33.4668 168.915 33.2031 168.821 32.9746C168.733 32.7402 168.575 32.5293 168.347 32.3418C168.124 32.1543 167.813 31.9756 167.415 31.8057C167.022 31.6357 166.524 31.4629 165.921 31.2871C165.288 31.0996 164.717 30.8916 164.207 30.6631C163.697 30.4287 163.261 30.1621 162.897 29.8633C162.534 29.5645 162.256 29.2217 162.062 28.835C161.869 28.4482 161.772 28.0059 161.772 27.5078C161.772 27.0098 161.875 26.5498 162.08 26.1279C162.285 25.7061 162.578 25.3398 162.959 25.0293C163.346 24.7129 163.806 24.4668 164.339 24.291C164.872 24.1152 165.467 24.0273 166.123 24.0273C167.084 24.0273 167.898 24.2119 168.566 24.5811C169.24 24.9443 169.753 25.4219 170.104 26.0137C170.456 26.5996 170.632 27.2266 170.632 27.8945H168.944C168.944 27.4141 168.842 26.9893 168.637 26.6201C168.432 26.2451 168.121 25.9521 167.705 25.7412C167.289 25.5244 166.762 25.416 166.123 25.416C165.52 25.416 165.021 25.5068 164.629 25.6885C164.236 25.8701 163.943 26.1162 163.75 26.4268C163.562 26.7373 163.469 27.0918 163.469 27.4902C163.469 27.7598 163.524 28.0059 163.636 28.2285C163.753 28.4453 163.932 28.6475 164.172 28.835C164.418 29.0225 164.729 29.1953 165.104 29.3535C165.484 29.5117 165.938 29.6641 166.466 29.8105C167.192 30.0156 167.819 30.2441 168.347 30.4961C168.874 30.748 169.308 31.0322 169.647 31.3486C169.993 31.6592 170.248 32.0137 170.412 32.4121C170.582 32.8047 170.667 33.25 170.667 33.748C170.667 34.2695 170.562 34.7412 170.351 35.1631C170.14 35.585 169.838 35.9453 169.445 36.2441C169.053 36.543 168.581 36.7744 168.03 36.9385C167.485 37.0967 166.876 37.1758 166.202 37.1758C165.61 37.1758 165.027 37.0938 164.453 36.9297C163.885 36.7656 163.366 36.5195 162.897 36.1914C162.435 35.8633 162.062 35.459 161.781 34.9785C161.506 34.4922 161.368 33.9297 161.368 33.291H163.056C163.056 33.7305 163.141 34.1084 163.311 34.4248C163.48 34.7354 163.712 34.9932 164.005 35.1982C164.304 35.4033 164.641 35.5557 165.016 35.6553C165.396 35.749 165.792 35.7959 166.202 35.7959C166.794 35.7959 167.295 35.7139 167.705 35.5498C168.115 35.3857 168.426 35.1514 168.637 34.8467C168.854 34.542 168.962 34.1816 168.962 33.7656Z" fill="#747474"/>
<rect width="28" height="28" rx="3" transform="matrix(1 0 0 -1 152 79)" fill="#13B06B"/>
<rect width="28" height="28" rx="3" transform="matrix(1 0 0 -1 152 113)" fill="#13B06B"/>
<rect width="28" height="28" rx="3" transform="matrix(1 0 0 -1 152 147)" fill="#13B06B"/>
<rect width="28" height="28" rx="3" transform="matrix(1 0 0 -1 119 181)" fill="#13B06B"/>
<rect width="28" height="28" rx="3" transform="matrix(1 0 0 -1 119 79)" fill="#13B06B"/>
<rect width="28" height="28" rx="3" transform="matrix(1 0 0 -1 119 113)" fill="#F23A30"/>
<rect width="28" height="28" rx="3" transform="matrix(1 0 0 -1 53 113)" fill="#F23A30"/>
<rect width="28" height="28" rx="3" transform="matrix(1 0 0 -1 86 147)" fill="#F23A30"/>
<rect width="28" height="28" rx="3" transform="matrix(1 0 0 -1 150 181)" fill="#F23A30"/>
<rect width="28" height="28" rx="3" transform="matrix(1 0 0 -1 119 79)" fill="#F23A30"/>
<rect width="28" height="28" rx="3" transform="matrix(1 0 0 -1 20 79)" fill="#F23A30"/>
<rect width="28" height="28" rx="3" transform="matrix(1 0 0 -1 53 147)" fill="#F23A30"/>
<rect width="28" height="28" rx="3" transform="matrix(1 0 0 -1 20 181)" fill="#F23A30"/>
<rect width="28" height="28" rx="3" transform="matrix(1 0 0 -1 119 147)" fill="#13B06B"/>
<rect width="28" height="28" rx="3" transform="matrix(1 0 0 -1 20 113)" fill="#13B06B"/>
<rect width="28" height="28" rx="3" transform="matrix(1 0 0 -1 20 147)" fill="#13B06B"/>
<rect width="28" height="28" rx="3" transform="matrix(1 0 0 -1 53 147)" fill="#13B06B"/>
<rect width="28" height="28" rx="3" transform="matrix(1 0 0 -1 86 181)" fill="#13B06B"/>
<rect width="28" height="28" rx="3" transform="matrix(1 0 0 -1 86 79)" fill="#13B06B"/>
<rect width="28" height="28" rx="3" transform="matrix(1 0 0 -1 86 113)" fill="#13B06B"/>
<rect width="28" height="28" rx="3" transform="matrix(1 0 0 -1 53 181)" fill="#13B06B"/>
<rect width="28" height="28" rx="3" transform="matrix(1 0 0 -1 53 79)" fill="#13B06B"/>
</svg>
