<svg width="200" height="200" viewBox="0 0 200 200" fill="none" xmlns="http://www.w3.org/2000/svg">
  <rect width="200" height="200" rx="23" fill="white" />
  <path d="M36.2588 33.6514C36.2588 33.4229 36.2236 33.2178 36.1533 33.0361C36.0889 32.8486 35.9658 32.6787 35.7842 32.5264C35.6025 32.3682 35.3477 32.2129 35.0195 32.0605C34.6914 31.9082 34.2666 31.75 33.7451 31.5859C33.165 31.3984 32.6143 31.1875 32.0928 30.9531C31.5771 30.7188 31.1201 30.4463 30.7217 30.1357C30.3291 29.8193 30.0186 29.4531 29.79 29.0371C29.5674 28.6211 29.4561 28.1377 29.4561 27.5869C29.4561 27.0537 29.5732 26.5703 29.8076 26.1367C30.042 25.6973 30.3701 25.3223 30.792 25.0117C31.2139 24.6953 31.7119 24.4521 32.2861 24.2822C32.8662 24.1123 33.502 24.0273 34.1934 24.0273C35.1367 24.0273 35.96 24.1973 36.6631 24.5371C37.3662 24.877 37.9111 25.3428 38.2979 25.9346C38.6904 26.5264 38.8867 27.2031 38.8867 27.9648H36.2676C36.2676 27.5898 36.1885 27.2617 36.0303 26.9805C35.8779 26.6934 35.6436 26.4678 35.3271 26.3037C35.0166 26.1396 34.624 26.0576 34.1494 26.0576C33.6924 26.0576 33.3115 26.1279 33.0068 26.2686C32.7021 26.4033 32.4736 26.5879 32.3213 26.8223C32.1689 27.0508 32.0928 27.3086 32.0928 27.5957C32.0928 27.8125 32.1455 28.0088 32.251 28.1846C32.3623 28.3604 32.5264 28.5244 32.7432 28.6768C32.96 28.8291 33.2266 28.9727 33.543 29.1074C33.8594 29.2422 34.2256 29.374 34.6416 29.5029C35.3389 29.7139 35.9512 29.9512 36.4785 30.2148C37.0117 30.4785 37.457 30.7744 37.8145 31.1025C38.1719 31.4307 38.4414 31.8027 38.623 32.2188C38.8047 32.6348 38.8955 33.1064 38.8955 33.6338C38.8955 34.1904 38.7871 34.6885 38.5703 35.1279C38.3535 35.5674 38.04 35.9395 37.6299 36.2441C37.2197 36.5488 36.7305 36.7803 36.1621 36.9385C35.5938 37.0967 34.958 37.1758 34.2549 37.1758C33.6221 37.1758 32.998 37.0938 32.3828 36.9297C31.7676 36.7598 31.208 36.5049 30.7041 36.165C30.2061 35.8252 29.8076 35.3916 29.5088 34.8643C29.21 34.3369 29.0605 33.7129 29.0605 32.9922H31.7061C31.7061 33.3906 31.7676 33.7275 31.8906 34.0029C32.0137 34.2783 32.1865 34.501 32.4092 34.6709C32.6377 34.8408 32.9072 34.9639 33.2178 35.04C33.5342 35.1162 33.8799 35.1543 34.2549 35.1543C34.7119 35.1543 35.0869 35.0898 35.3799 34.9609C35.6787 34.832 35.8984 34.6533 36.0391 34.4248C36.1855 34.1963 36.2588 33.9385 36.2588 33.6514Z" fill="#747474" />
  <path d="M68.2832 24.2031V37H65.6553V24.2031H68.2832ZM72.2207 24.2031V26.2686H61.7793V24.2031H72.2207Z" fill="#747474" />
  <path d="M101.89 35.1016L105.353 37.8438L103.691 39.2852L100.281 36.543L101.89 35.1016ZM105.44 30.3027V30.9092C105.44 31.8818 105.309 32.7549 105.045 33.5283C104.787 34.3018 104.415 34.9609 103.929 35.5059C103.442 36.0449 102.868 36.458 102.206 36.7451C101.544 37.0322 100.809 37.1758 100 37.1758C99.1973 37.1758 98.4619 37.0322 97.7939 36.7451C97.126 36.458 96.5488 36.0449 96.0625 35.5059C95.5762 34.9609 95.1982 34.3018 94.9287 33.5283C94.665 32.7549 94.5332 31.8818 94.5332 30.9092V30.3027C94.5332 29.3242 94.665 28.4512 94.9287 27.6836C95.1982 26.9102 95.5732 26.251 96.0537 25.7061C96.5342 25.1611 97.1084 24.7451 97.7764 24.458C98.4443 24.1709 99.1797 24.0273 99.9824 24.0273C100.791 24.0273 101.526 24.1709 102.188 24.458C102.856 24.7451 103.434 25.1611 103.92 25.7061C104.406 26.251 104.781 26.9102 105.045 27.6836C105.309 28.4512 105.44 29.3242 105.44 30.3027ZM102.777 30.9092V30.2852C102.777 29.6055 102.713 29.0078 102.584 28.4922C102.461 27.9766 102.279 27.543 102.039 27.1914C101.805 26.8398 101.515 26.5762 101.169 26.4004C100.823 26.2188 100.428 26.1279 99.9824 26.1279C99.5371 26.1279 99.1416 26.2188 98.7959 26.4004C98.4502 26.5762 98.1602 26.8398 97.9258 27.1914C97.6914 27.543 97.5127 27.9766 97.3896 28.4922C97.2666 29.0078 97.2051 29.6055 97.2051 30.2852V30.9092C97.2051 31.583 97.2666 32.1807 97.3896 32.7021C97.5127 33.2178 97.6914 33.6543 97.9258 34.0117C98.166 34.3633 98.459 34.6299 98.8047 34.8115C99.1562 34.9932 99.5547 35.084 100 35.084C100.445 35.084 100.838 34.9932 101.178 34.8115C101.523 34.6299 101.813 34.3633 102.048 34.0117C102.288 33.6543 102.47 33.2178 102.593 32.7021C102.716 32.1807 102.777 31.583 102.777 30.9092Z" fill="#747474" />
  <path d="M134.89 35.1016L138.353 37.8438L136.691 39.2852L133.281 36.543L134.89 35.1016ZM138.44 30.3027V30.9092C138.44 31.8818 138.309 32.7549 138.045 33.5283C137.787 34.3018 137.415 34.9609 136.929 35.5059C136.442 36.0449 135.868 36.458 135.206 36.7451C134.544 37.0322 133.809 37.1758 133 37.1758C132.197 37.1758 131.462 37.0322 130.794 36.7451C130.126 36.458 129.549 36.0449 129.062 35.5059C128.576 34.9609 128.198 34.3018 127.929 33.5283C127.665 32.7549 127.533 31.8818 127.533 30.9092V30.3027C127.533 29.3242 127.665 28.4512 127.929 27.6836C128.198 26.9102 128.573 26.251 129.054 25.7061C129.534 25.1611 130.108 24.7451 130.776 24.458C131.444 24.1709 132.18 24.0273 132.982 24.0273C133.791 24.0273 134.526 24.1709 135.188 24.458C135.856 24.7451 136.434 25.1611 136.92 25.7061C137.406 26.251 137.781 26.9102 138.045 27.6836C138.309 28.4512 138.44 29.3242 138.44 30.3027ZM135.777 30.9092V30.2852C135.777 29.6055 135.713 29.0078 135.584 28.4922C135.461 27.9766 135.279 27.543 135.039 27.1914C134.805 26.8398 134.515 26.5762 134.169 26.4004C133.823 26.2188 133.428 26.1279 132.982 26.1279C132.537 26.1279 132.142 26.2188 131.796 26.4004C131.45 26.5762 131.16 26.8398 130.926 27.1914C130.691 27.543 130.513 27.9766 130.39 28.4922C130.267 29.0078 130.205 29.6055 130.205 30.2852V30.9092C130.205 31.583 130.267 32.1807 130.39 32.7021C130.513 33.2178 130.691 33.6543 130.926 34.0117C131.166 34.3633 131.459 34.6299 131.805 34.8115C132.156 34.9932 132.555 35.084 133 35.084C133.445 35.084 133.838 34.9932 134.178 34.8115C134.523 34.6299 134.813 34.3633 135.048 34.0117C135.288 33.6543 135.47 33.2178 135.593 32.7021C135.716 32.1807 135.777 31.583 135.777 30.9092Z" fill="#747474" />
  <path d="M168.259 33.6514C168.259 33.4229 168.224 33.2178 168.153 33.0361C168.089 32.8486 167.966 32.6787 167.784 32.5264C167.603 32.3682 167.348 32.2129 167.02 32.0605C166.691 31.9082 166.267 31.75 165.745 31.5859C165.165 31.3984 164.614 31.1875 164.093 30.9531C163.577 30.7188 163.12 30.4463 162.722 30.1357C162.329 29.8193 162.019 29.4531 161.79 29.0371C161.567 28.6211 161.456 28.1377 161.456 27.5869C161.456 27.0537 161.573 26.5703 161.808 26.1367C162.042 25.6973 162.37 25.3223 162.792 25.0117C163.214 24.6953 163.712 24.4521 164.286 24.2822C164.866 24.1123 165.502 24.0273 166.193 24.0273C167.137 24.0273 167.96 24.1973 168.663 24.5371C169.366 24.877 169.911 25.3428 170.298 25.9346C170.69 26.5264 170.887 27.2031 170.887 27.9648H168.268C168.268 27.5898 168.188 27.2617 168.03 26.9805C167.878 26.6934 167.644 26.4678 167.327 26.3037C167.017 26.1396 166.624 26.0576 166.149 26.0576C165.692 26.0576 165.312 26.1279 165.007 26.2686C164.702 26.4033 164.474 26.5879 164.321 26.8223C164.169 27.0508 164.093 27.3086 164.093 27.5957C164.093 27.8125 164.146 28.0088 164.251 28.1846C164.362 28.3604 164.526 28.5244 164.743 28.6768C164.96 28.8291 165.227 28.9727 165.543 29.1074C165.859 29.2422 166.226 29.374 166.642 29.5029C167.339 29.7139 167.951 29.9512 168.479 30.2148C169.012 30.4785 169.457 30.7744 169.814 31.1025C170.172 31.4307 170.441 31.8027 170.623 32.2188C170.805 32.6348 170.896 33.1064 170.896 33.6338C170.896 34.1904 170.787 34.6885 170.57 35.1279C170.354 35.5674 170.04 35.9395 169.63 36.2441C169.22 36.5488 168.73 36.7803 168.162 36.9385C167.594 37.0967 166.958 37.1758 166.255 37.1758C165.622 37.1758 164.998 37.0938 164.383 36.9297C163.768 36.7598 163.208 36.5049 162.704 36.165C162.206 35.8252 161.808 35.3916 161.509 34.8643C161.21 34.3369 161.061 33.7129 161.061 32.9922H163.706C163.706 33.3906 163.768 33.7275 163.891 34.0029C164.014 34.2783 164.187 34.501 164.409 34.6709C164.638 34.8408 164.907 34.9639 165.218 35.04C165.534 35.1162 165.88 35.1543 166.255 35.1543C166.712 35.1543 167.087 35.0898 167.38 34.9609C167.679 34.832 167.898 34.6533 168.039 34.4248C168.186 34.1963 168.259 33.9385 168.259 33.6514Z" fill="#747474" />
  <rect width="28" height="28" rx="3" transform="matrix(1 0 0 -1 152 79)" fill="#13B06B" />
  <rect width="28" height="28" rx="3" transform="matrix(1 0 0 -1 152 113)" fill="#13B06B" />
  <rect width="28" height="28" rx="3" transform="matrix(1 0 0 -1 152 147)" fill="#13B06B" />
  <rect width="28" height="28" rx="3" transform="matrix(1 0 0 -1 119 181)" fill="#13B06B" />
  <rect width="28" height="28" rx="3" transform="matrix(1 0 0 -1 119 79)" fill="#13B06B" />
  <rect width="28" height="28" rx="3" transform="matrix(1 0 0 -1 119 113)" fill="#F23A30" />
  <rect width="28" height="28" rx="3" transform="matrix(1 0 0 -1 53 113)" fill="#F23A30" />
  <rect width="28" height="28" rx="3" transform="matrix(1 0 0 -1 86 147)" fill="#F23A30" />
  <rect width="28" height="28" rx="3" transform="matrix(1 0 0 -1 150 181)" fill="#F23A30" />
  <rect width="28" height="28" rx="3" transform="matrix(1 0 0 -1 119 79)" fill="#F23A30" />
  <rect width="28" height="28" rx="3" transform="matrix(1 0 0 -1 20 79)" fill="#F23A30" />
  <rect width="28" height="28" rx="3" transform="matrix(1 0 0 -1 53 147)" fill="#F23A30" />
  <rect width="28" height="28" rx="3" transform="matrix(1 0 0 -1 20 181)" fill="#F23A30" />
  <rect width="28" height="28" rx="3" transform="matrix(1 0 0 -1 119 147)" fill="#13B06B" />
  <rect width="28" height="28" rx="3" transform="matrix(1 0 0 -1 20 113)" fill="#13B06B" />
  <rect width="28" height="28" rx="3" transform="matrix(1 0 0 -1 20 147)" fill="#13B06B" />
  <rect width="28" height="28" rx="3" transform="matrix(1 0 0 -1 53 147)" fill="#13B06B" />
  <rect width="28" height="28" rx="3" transform="matrix(1 0 0 -1 86 181)" fill="#13B06B" />
  <rect width="28" height="28" rx="3" transform="matrix(1 0 0 -1 86 79)" fill="#13B06B" />
  <rect width="28" height="28" rx="3" transform="matrix(1 0 0 -1 86 113)" fill="#13B06B" />
  <rect width="28" height="28" rx="3" transform="matrix(1 0 0 -1 53 181)" fill="#13B06B" />
  <rect width="28" height="28" rx="3" transform="matrix(1 0 0 -1 53 79)" fill="#13B06B" />
</svg>
